<?xml version="1.0" standalone="no"?>
<!DOCTYPE svg PUBLIC "-//W3C//DTD SVG 20010904//EN"
 "http://www.w3.org/TR/2001/REC-SVG-20010904/DTD/svg10.dtd">
<svg version="1.0" xmlns="http://www.w3.org/2000/svg"
 width="1135.000000pt" height="408.000000pt" viewBox="0 0 1135.000000 408.000000"
 preserveAspectRatio="xMidYMid meet">

<g transform="translate(0.000000,408.000000) scale(0.100000,-0.100000)"
fill="#000000" stroke="none">
<path d="M1775 4003 c-151 -18 -270 -54 -407 -124 -101 -52 -1247 -721 -1248
-730 0 -4 365 -217 392 -227 4 -2 161 82 347 187 l340 190 432 -250 432 -250
154 102 c84 56 153 105 153 108 -1 3 -195 114 -432 246 -237 133 -431 245
-432 250 0 6 35 28 78 50 80 40 81 40 195 40 148 0 164 -6 427 -152 449 -248
960 -526 970 -526 8 0 373 207 402 228 1 1 -150 89 -335 196 -186 106 -437
251 -557 322 -421 247 -571 315 -746 336 -84 11 -107 11 -165 4z"/>
<path d="M4537 3359 c-79 -11 -215 -59 -285 -100 -123 -73 -218 -193 -274
-349 l-23 -65 -3 -867 -3 -868 241 0 240 0 0 560 0 560 164 0 163 0 52 203
c29 111 54 210 57 220 5 16 -10 17 -217 17 l-222 0 7 58 c4 31 15 73 25 92 39
75 163 126 293 118 l68 -4 0 212 c0 184 -2 213 -16 218 -22 8 -197 5 -267 -5z"/>
<path d="M5224 3359 c-44 -13 -124 -86 -145 -134 -26 -57 -25 -165 2 -222 73
-150 270 -190 395 -80 66 58 88 107 88 192 0 53 -5 80 -21 111 -28 53 -105
121 -152 134 -43 12 -124 12 -167 -1z"/>
<path d="M6740 3133 l0 -208 -92 3 c-202 8 -405 -29 -547 -99 -150 -74 -263
-217 -296 -376 -22 -101 -21 -763 0 -871 49 -242 217 -417 464 -484 102 -28
351 -30 456 -4 120 29 227 88 309 169 82 81 122 146 163 262 l28 80 3 868 3
867 -246 0 -245 0 0 -207z m-22 -609 l22 -6 0 -409 c0 -253 -4 -427 -11 -458
-23 -111 -97 -165 -223 -164 -84 1 -120 13 -163 55 -63 61 -68 94 -68 468 0
375 3 395 69 459 56 55 122 73 246 67 58 -3 115 -8 128 -12z"/>
<path d="M8410 3133 l0 -208 -92 3 c-115 5 -282 -12 -385 -38 -188 -48 -335
-155 -407 -297 -62 -125 -66 -154 -66 -570 0 -428 5 -466 74 -608 78 -159 214
-265 403 -317 106 -28 354 -31 458 -4 241 61 411 224 481 461 17 55 18 131 21
923 l4 862 -246 0 -245 0 0 -207z m-57 -604 l57 -12 0 -412 c0 -440 -4 -480
-53 -549 -31 -44 -99 -69 -185 -69 -134 1 -197 56 -223 197 -6 36 -9 174 -7
365 3 287 4 309 24 351 29 60 72 99 136 121 61 21 168 24 251 8z"/>
<path d="M9170 2225 l0 -1115 245 0 245 0 0 1115 0 1115 -245 0 -245 0 0
-1115z"/>
<path d="M77 2288 c2 -892 5 -927 92 -1113 67 -142 185 -273 343 -382 61 -42
1238 -716 1276 -730 9 -4 12 45 12 225 l0 230 -335 198 -334 199 -1 500 0 500
-167 83 -166 84 6 -506 6 -506 -37 16 c-86 35 -184 145 -228 254 -34 84 -40
178 -54 915 -8 407 -14 563 -23 571 -11 10 -383 224 -389 224 -2 0 -2 -343 -1
-762z"/>
<path d="M3413 2927 l-193 -112 0 -355 c0 -195 -3 -371 -6 -392 -6 -36 -8 -37
-436 -284 l-429 -248 7 -115 c4 -64 10 -149 13 -188 l6 -72 428 255 c235 140
432 252 437 249 30 -19 -1 -182 -53 -279 -55 -104 -119 -157 -367 -305 -124
-74 -384 -231 -577 -349 l-353 -215 0 -234 c0 -129 3 -232 8 -230 4 2 162 94
352 204 190 110 453 262 585 338 308 175 444 266 532 355 118 118 183 231 231
410 l26 95 4 760 c3 719 1 826 -16 825 -4 -1 -94 -51 -199 -113z"/>
<path d="M10450 2923 c-223 -26 -407 -143 -493 -314 -69 -138 -72 -161 -72
-554 0 -330 1 -355 22 -438 60 -232 178 -384 368 -472 106 -49 169 -60 345
-58 219 1 350 38 466 130 87 70 164 211 180 332 l7 51 -220 0 -220 0 -29 -57
c-38 -74 -96 -112 -181 -120 -85 -8 -139 10 -194 66 -60 59 -80 120 -86 269
l-6 112 473 0 472 0 -5 253 c-5 251 -10 296 -48 414 -81 250 -324 397 -648
391 -53 0 -112 -3 -131 -5z m233 -344 c57 -16 113 -71 138 -137 16 -44 21 -82
22 -162 l2 -105 -252 -3 -253 -2 0 88 c0 227 77 329 250 331 30 1 72 -4 93
-10z"/>
<path d="M680 2766 c0 -2 245 -166 545 -366 381 -254 547 -370 550 -384 2 -12
20 -284 40 -606 20 -322 39 -601 42 -620 3 -19 25 252 48 603 24 351 44 639
46 641 2 2 243 162 534 356 292 194 535 357 540 362 14 13 -190 -85 -707 -341
-246 -121 -452 -221 -457 -221 -6 0 -274 130 -596 289 -322 159 -585 288 -585
287z"/>
<path d="M5070 1885 l0 -775 240 0 240 0 0 775 0 775 -240 0 -240 0 0 -775z"/>
</g>
</svg>
